# xmcd CD database file
#
# Track frame offsets:
#	150
#	8010
#	23242
#	36996
#	46850
#	60843
#	78152
#	92268
#	106976
#	123707
#	141503
#	153889
#	166419
#	178105
#	186998
#	199748
#
# Disc length: 2824 seconds
#
# Revision: 0
# Processed by: cddbd v1.5.2PL0 Copyright (c) Steve Scherf et al.
# Submitted via: jetAudio 7
#
DISCID=c80b0610
DTITLE=Agnes Chan - The Best Of Agnes Chan
DYEAR=1900
DGENRE=Pop
TTITLE0=You Are 21, I Am 16
TTITLE1=Colour
TTITLE2=Sing
TTITLE3=Whatever Will Be, WIll Be
TTITLE4=Everone's Gone To The Moon
TTITLE5=Me And You And The Dog Named Boo
TTITLE6=Sayonara Goodbye
TTITLE7=The Twelfth Of Never
TTITLE8=To Love Somebody
TTITLE9=Tie A Yellow Ribbon Round The Old Oak Tree
TTITLE10=For Baby
TTITLE11=Never Ending Story Of Love
TTITLE12=Too Many Mornings
TTITLE13=Less Of Me
TTITLE14=Home Ain't Home Anymore
TTITLE15=Daddy's Home
EXTD=
EXTT0=
EXTT1=
EXTT2=
EXTT3=
EXTT4=
EXTT5=
EXTT6=
EXTT7=
EXTT8=
EXTT9=
EXTT10=
EXTT11=
EXTT12=
EXTT13=
EXTT14=
EXTT15=
PLAYORDER=
